<svg width="26" height="28" viewBox="0 0 26 28" fill="none" xmlns="http://www.w3.org/2000/svg">
<path d="M12.7644 0C5.7104 0 0 5.72028 0 12.7644C0 18.3464 3.59617 23.0985 8.58536 24.8175C8.45693 24.1754 8.62488 23.5332 9.02006 23.059C4.80148 21.5375 1.78821 17.5066 1.78821 12.7644C1.78821 6.70824 6.70824 1.79809 12.7644 1.79809C18.8107 1.79809 23.7308 6.70824 23.7308 12.7644C23.7308 17.4968 20.7274 21.5276 16.5187 23.059C16.9139 23.5233 17.0818 24.1655 16.9534 24.8076C21.9327 23.0787 25.519 18.3365 25.519 12.7644C25.519 5.72028 19.7987 0 12.7644 0ZM12.7644 4.00123C7.92343 4.00123 4.00123 7.92343 4.00123 12.7644C4.00123 17.5955 7.92343 21.5276 12.7644 21.5276C17.5955 21.5276 21.5177 17.5955 21.5177 12.7644C21.5177 7.92343 17.5955 4.00123 12.7644 4.00123ZM10.1859 24.9954L12.2211 27.7221C12.4977 28.0975 13.0213 28.0877 13.3078 27.7221L15.3529 24.9954C15.7777 24.4421 15.5505 23.7308 14.7996 23.7308H10.7194C10.008 23.7308 9.75115 24.4223 10.1859 24.9954Z" fill="#007AFF"/>
</svg>
